<svg width="36" height="30" viewBox="0 0 36 30" fill="none" xmlns="http://www.w3.org/2000/svg">
<g clip-path="url(#clip0_0_2226)">
<path d="M9.95084 27.7929L6.84451 22.8752L11.4032 15.678L14.3001 20.2644L31.4011 20.256L26.5486 27.8607L9.95084 27.7929Z" fill="#FA95E3"/>
<path d="M34.4542 15.3727L31.3479 20.2903L22.2492 20.2805L25.1464 15.6942L16.588 2.16211L26.2197 2.20073L34.4542 15.3727Z" fill="#FDE7F8"/>
<path d="M10.4286 2.13672H16.6413L21.1814 9.34384L15.3871 9.34363L6.84466 22.8841L2.06534 15.2408L10.4286 2.13672Z" fill="#FFBDF1"/>
<path fill-rule="evenodd" clip-rule="evenodd" d="M17.3997 0.996661L17.3812 0.967285H9.6957L0.59082 15.2334L6.84083 25.2287L6.8485 25.2166L9.21122 28.9571L27.2809 29.031L33.6266 19.0861H33.5843L35.9285 15.3751L26.9637 1.03501L17.3997 0.996661ZM23.345 10.5105H23.3929L18.8751 3.33872L25.4768 3.36517L32.981 15.369L30.6322 19.0876L24.4766 19.0906L26.6229 15.6932L23.345 10.5105ZM15.8346 3.30336L18.9152 8.17427L14.65 8.17413L7.34786 19.7485L6.84976 20.535L3.54218 15.2453L11.1637 3.30336H15.8346ZM12.8729 15.6675L16.1265 10.5103L20.3928 10.5104L23.671 15.6938L21.5244 19.0921L15.0379 19.0953L12.8729 15.6675ZM8.32321 22.8791L9.56104 20.9171L11.4018 18.0109L13.5627 21.4321L20.0482 21.4289L20.0377 21.4455L29.156 21.4553L25.8166 26.6889L10.6907 26.627L8.32321 22.8791Z" fill="#54136B"/>
</g>
<defs>
<clipPath id="clip0_0_2226">
<rect width="36" height="30" fill="white"/>
</clipPath>
</defs>
</svg>
