<svg width="24" height="24" viewBox="0 0 24 24" fill="none" xmlns="http://www.w3.org/2000/svg">
<path fill-rule="evenodd" clip-rule="evenodd" d="M17.2975 9.88735C17.3645 9.95431 17.398 10.0313 17.398 10.1184C17.398 10.2054 17.3645 10.2824 17.2975 10.3494L12.6167 15.0302C12.5498 15.0972 12.4727 15.1307 12.3857 15.1307C12.2986 15.1307 12.2216 15.0972 12.1547 15.0302L7.47386 10.3494C7.4069 10.2824 7.37341 10.2054 7.37341 10.1184C7.37341 10.0313 7.4069 9.95431 7.47386 9.88735L7.97609 9.38511C8.04306 9.31815 8.12007 9.28467 8.20712 9.28467C8.29417 9.28467 8.37118 9.31815 8.43815 9.38511L12.3857 13.3327L16.3332 9.38511C16.4002 9.31815 16.4772 9.28467 16.5643 9.28467C16.6513 9.28467 16.7283 9.31815 16.7953 9.38511L17.2975 9.88735Z" fill="#4F575E"/>
</svg>
