<svg width="24" height="24" viewBox="0 0 24 24" fill="none" xmlns="http://www.w3.org/2000/svg">
<path fill-rule="evenodd" clip-rule="evenodd" d="M21 9.36032V17.3358C21 17.7777 20.8426 18.1561 20.5279 18.4708C20.2132 18.7855 19.8348 18.9429 19.3929 18.9429H4.60711C4.16515 18.9429 3.7868 18.7855 3.47207 18.4708C3.15734 18.1561 2.99997 17.7777 2.99997 17.3358V9.36032C3.29461 9.68845 3.63278 9.97974 4.01448 10.2342C6.43859 11.8815 8.10265 13.0367 9.00667 13.6996C9.38836 13.9809 9.69807 14.2002 9.93579 14.3575C10.1735 14.5149 10.4899 14.6756 10.885 14.8397C11.2801 15.0037 11.6484 15.0858 11.9899 15.0858H12H12.01C12.3515 15.0858 12.7198 15.0037 13.1149 14.8397C13.51 14.6756 13.8264 14.5149 14.0641 14.3575C14.3019 14.2002 14.6116 13.9809 14.9933 13.6996C16.1317 12.8759 17.7991 11.7208 19.9955 10.2342C20.3772 9.97304 20.712 9.68175 21 9.36032H21ZM21 6.40719C21 6.93621 20.8359 7.44179 20.5078 7.92393C20.1797 8.40608 19.7712 8.81791 19.2824 9.15942C16.7645 10.9072 15.1976 11.9954 14.5815 12.4239C14.5145 12.4708 14.3722 12.5729 14.1546 12.7303C13.9369 12.8877 13.7561 13.0149 13.6122 13.112C13.4682 13.2091 13.2941 13.3179 13.0899 13.4384C12.8856 13.559 12.6931 13.6494 12.5123 13.7097C12.3315 13.7699 12.1641 13.8001 12.0101 13.8001H12H11.99C11.8359 13.8001 11.6685 13.7699 11.4877 13.7097C11.3069 13.6494 11.1144 13.559 10.9102 13.4384C10.7059 13.3179 10.5318 13.2091 10.3878 13.112C10.2439 13.0149 10.0631 12.8877 9.84543 12.7303C9.6278 12.5729 9.4855 12.4708 9.41853 12.4239C8.80916 11.9954 7.93193 11.3843 6.78684 10.5908C5.64175 9.79726 4.95537 9.32014 4.72769 9.15942C4.31251 8.87817 3.92076 8.49146 3.55246 7.99927C3.18416 7.50708 3 7.05005 3 6.62817C3 6.10585 3.13896 5.67059 3.41686 5.32237C3.69476 4.97416 4.09152 4.80005 4.60715 4.80005H19.3929C19.8282 4.80005 20.2048 4.95741 20.5229 5.27215C20.841 5.58688 21 5.96523 21 6.40719L21 6.40719Z" fill="#009DDE"/>
</svg>
