<svg width="24" height="24" viewBox="0 0 24 24" fill="none" xmlns="http://www.w3.org/2000/svg">
<path fill-rule="evenodd" clip-rule="evenodd" d="M13.0761 11.5586C13.1431 11.6256 13.1766 11.7026 13.1766 11.7896C13.1766 11.8767 13.1431 11.9537 13.0761 12.0206L8.39531 16.7015C8.32835 16.7684 8.25134 16.8019 8.16429 16.8019C8.07723 16.8019 8.00023 16.7684 7.93326 16.7015L7.43103 16.1992C7.36406 16.1323 7.33058 16.0552 7.33058 15.9682C7.33058 15.8811 7.36406 15.8041 7.43103 15.7372L11.3786 11.7896L7.43103 7.84208C7.36406 7.77511 7.33058 7.6981 7.33058 7.61105C7.33058 7.524 7.36406 7.44699 7.43103 7.38002L7.93326 6.87779C8.00023 6.81083 8.07723 6.77734 8.16429 6.77734C8.25134 6.77734 8.32835 6.81083 8.39531 6.87779L13.0761 11.5586ZM16.9333 11.5586C17.0002 11.6256 17.0337 11.7026 17.0337 11.7896C17.0337 11.8767 17.0002 11.9537 16.9333 12.0206L12.2525 16.7015C12.1855 16.7684 12.1085 16.8019 12.0214 16.8019C11.9344 16.8019 11.8574 16.7684 11.7904 16.7015L11.2882 16.1992C11.2212 16.1323 11.1877 16.0552 11.1877 15.9682C11.1877 15.8811 11.2212 15.8041 11.2882 15.7372L15.2357 11.7896L11.2882 7.84208C11.2212 7.77511 11.1877 7.6981 11.1877 7.61105C11.1877 7.524 11.2212 7.44699 11.2882 7.38002L11.7904 6.87779C11.8574 6.81083 11.9344 6.77734 12.0214 6.77734C12.1085 6.77734 12.1855 6.81083 12.2525 6.87779L16.9333 11.5586Z" fill="#AE79D7"/>
</svg>
