<svg width="11" height="15" viewBox="0 0 11 15" fill="none" xmlns="http://www.w3.org/2000/svg">
<path fill-rule="evenodd" clip-rule="evenodd" d="M10.1949 8.90517C10.3221 9.0324 10.3857 9.18307 10.3857 9.35717C10.3857 9.53128 10.3221 9.68195 10.1949 9.80918L5.69487 14.3092C5.56764 14.4364 5.41697 14.5 5.24286 14.5C5.06876 14.5 4.91809 14.4364 4.79085 14.3092L0.290854 9.80918C0.163622 9.68195 0.100006 9.53128 0.100006 9.35717C0.100006 9.18307 0.163622 9.0324 0.290854 8.90517C0.418086 8.77793 0.568756 8.71432 0.742863 8.71432H9.74286C9.91697 8.71432 10.0676 8.77793 10.1949 8.90517ZM10.1949 5.04803C10.3221 5.17526 10.3857 5.32593 10.3857 5.50003C10.3857 5.67414 10.3221 5.82481 10.1949 5.95204C10.0676 6.07927 9.91697 6.14289 9.74286 6.14289H0.742863C0.568756 6.14289 0.418086 6.07927 0.290854 5.95204C0.163622 5.82481 0.100006 5.67414 0.100006 5.50003C0.100006 5.32593 0.163622 5.17526 0.290854 5.04803L4.79085 0.548026C4.91809 0.420794 5.06876 0.357178 5.24286 0.357178C5.41697 0.357178 5.56764 0.420794 5.69487 0.548026L10.1949 5.04803Z" fill="#272B30"/>
</svg>
