<svg width="11" height="15" viewBox="0 0 11 15" fill="none" xmlns="http://www.w3.org/2000/svg">
<mask id="path-1-inside-1_13982_2111" fill="white">
<path fill-rule="evenodd" clip-rule="evenodd" d="M10.1949 8.90517C10.3221 9.0324 10.3857 9.18307 10.3857 9.35717C10.3857 9.53128 10.3221 9.68195 10.1949 9.80918L5.69489 14.3092C5.56765 14.4364 5.41698 14.5 5.24288 14.5C5.06877 14.5 4.9181 14.4364 4.79087 14.3092L0.290869 9.80918C0.163637 9.68195 0.100021 9.53128 0.100021 9.35717C0.100021 9.18307 0.163637 9.0324 0.290869 8.90517C0.418101 8.77793 0.568771 8.71432 0.742878 8.71432H9.74288C9.91698 8.71432 10.0677 8.77793 10.1949 8.90517ZM10.1949 5.04803C10.3221 5.17526 10.3857 5.32593 10.3857 5.50003C10.3857 5.67414 10.3221 5.82481 10.1949 5.95204C10.0677 6.07927 9.91698 6.14289 9.74288 6.14289H0.742878C0.568771 6.14289 0.418101 6.07927 0.290869 5.95204C0.163637 5.82481 0.100021 5.67414 0.100021 5.50003C0.100021 5.32593 0.163637 5.17526 0.290869 5.04803L4.79087 0.548026C4.9181 0.420794 5.06877 0.357178 5.24288 0.357178C5.41698 0.357178 5.56765 0.420794 5.69489 0.548026L10.1949 5.04803Z"/>
</mask>
<path d="M10.1949 9.80918L10.902 10.5163L10.1949 9.80918ZM5.69489 14.3092L4.98778 13.6021L5.69489 14.3092ZM4.79087 14.3092L5.49798 13.6021L4.79087 14.3092ZM0.290869 9.80918L-0.416237 10.5163L0.290869 9.80918ZM10.1949 5.04803L10.902 4.34092L10.1949 5.04803ZM0.290869 5.04803L-0.416237 4.34092L0.290869 5.04803ZM4.79087 0.548026L5.49798 1.25513L4.79087 0.548026ZM5.69489 0.548026L4.98778 1.25513L5.69489 0.548026ZM9.48778 9.61227C9.46932 9.59382 9.43996 9.55748 9.41677 9.50257C9.39331 9.447 9.38573 9.39499 9.38573 9.35717H11.3857C11.3857 8.90809 11.2097 8.50581 10.902 8.19806L9.48778 9.61227ZM9.38573 9.35717C9.38573 9.31936 9.39331 9.26735 9.41677 9.21178C9.43996 9.15687 9.46932 9.12053 9.48778 9.10208L10.902 10.5163C11.2097 10.2085 11.3857 9.80626 11.3857 9.35717H9.38573ZM9.48778 9.10208L4.98778 13.6021L6.40199 15.0163L10.902 10.5163L9.48778 9.10208ZM4.98778 13.6021C5.00623 13.5836 5.04257 13.5543 5.09749 13.5311C5.15306 13.5076 5.20506 13.5 5.24288 13.5V15.5C5.69196 15.5 6.09424 15.324 6.40199 15.0163L4.98778 13.6021ZM5.24288 13.5C5.28069 13.5 5.3327 13.5076 5.38827 13.5311C5.44318 13.5543 5.47952 13.5836 5.49798 13.6021L4.08376 15.0163C4.39152 15.324 4.7938 15.5 5.24288 15.5V13.5ZM5.49798 13.6021L0.997976 9.10208L-0.416237 10.5163L4.08376 15.0163L5.49798 13.6021ZM0.997976 9.10208C1.01643 9.12053 1.0458 9.15687 1.06898 9.21179C1.09245 9.26735 1.10002 9.31936 1.10002 9.35717H-0.899979C-0.899979 9.80625 -0.723993 10.2085 -0.416237 10.5163L0.997976 9.10208ZM1.10002 9.35717C1.10002 9.39499 1.09245 9.447 1.06898 9.50256C1.0458 9.55748 1.01643 9.59382 0.997976 9.61227L-0.416237 8.19806C-0.723993 8.50581 -0.899979 8.9081 -0.899979 9.35717H1.10002ZM0.997976 9.61227C0.979521 9.63073 0.943185 9.66009 0.888267 9.68328C0.832698 9.70674 0.780694 9.71432 0.742878 9.71432V7.71432C0.293798 7.71432 -0.108482 7.8903 -0.416237 8.19806L0.997976 9.61227ZM0.742878 9.71432H9.74288V7.71432H0.742878V9.71432ZM9.74288 9.71432C9.70506 9.71432 9.65306 9.70674 9.59749 9.68328C9.54257 9.66009 9.50623 9.63073 9.48778 9.61227L10.902 8.19806C10.5942 7.8903 10.192 7.71432 9.74288 7.71432V9.71432ZM9.48778 5.75513C9.46932 5.73668 9.43996 5.70034 9.41677 5.64542C9.39331 5.58986 9.38573 5.53785 9.38573 5.50003H11.3857C11.3857 5.05095 11.2097 4.64867 10.902 4.34092L9.48778 5.75513ZM9.38573 5.50003C9.38573 5.46222 9.39331 5.41021 9.41677 5.35464C9.43996 5.29973 9.46932 5.26339 9.48778 5.24494L10.902 6.65915C11.2097 6.3514 11.3857 5.94912 11.3857 5.50003H9.38573ZM9.48778 5.24494C9.50623 5.22648 9.54257 5.19712 9.59749 5.17393C9.65306 5.15047 9.70506 5.14289 9.74288 5.14289V7.14289C10.192 7.14289 10.5942 6.9669 10.902 6.65915L9.48778 5.24494ZM9.74288 5.14289H0.742878V7.14289H9.74288V5.14289ZM0.742878 5.14289C0.780694 5.14289 0.832698 5.15047 0.888267 5.17393C0.943184 5.19712 0.979521 5.22648 0.997976 5.24494L-0.416237 6.65915C-0.108482 6.96691 0.293798 7.14289 0.742878 7.14289V5.14289ZM0.997976 5.24494C1.01643 5.26339 1.0458 5.29973 1.06898 5.35464C1.09245 5.41021 1.10002 5.46222 1.10002 5.50003H-0.899979C-0.899979 5.94911 -0.723992 6.35139 -0.416237 6.65915L0.997976 5.24494ZM1.10002 5.50003C1.10002 5.53785 1.09245 5.58985 1.06898 5.64542C1.0458 5.70034 1.01643 5.73668 0.997976 5.75513L-0.416237 4.34092C-0.723993 4.64867 -0.899979 5.05096 -0.899979 5.50003H1.10002ZM0.997976 5.75513L5.49798 1.25513L4.08376 -0.159081L-0.416237 4.34092L0.997976 5.75513ZM5.49798 1.25513C5.47952 1.27359 5.44318 1.30295 5.38827 1.32614C5.3327 1.3496 5.28069 1.35718 5.24288 1.35718V-0.642822C4.7938 -0.642822 4.39152 -0.466837 4.08376 -0.159081L5.49798 1.25513ZM5.24288 1.35718C5.20506 1.35718 5.15306 1.3496 5.09749 1.32614C5.04257 1.30295 5.00623 1.27359 4.98778 1.25513L6.40199 -0.159081C6.09424 -0.466836 5.69196 -0.642822 5.24288 -0.642822V1.35718ZM4.98778 1.25513L9.48778 5.75513L10.902 4.34092L6.40199 -0.159081L4.98778 1.25513Z" fill="#272B30" mask="url(#path-1-inside-1_13982_2111)"/>
</svg>
