<svg width="147" height="117" viewBox="0 0 147 117" fill="none" xmlns="http://www.w3.org/2000/svg">
<path fill-rule="evenodd" clip-rule="evenodd" d="M145.898 5.81343H194.195C194.195 5.81343 196.032 52.3268 145.898 52.3268C136.581 52.3268 128.354 48.4254 123.365 42.46C121.373 40.0763 117.328 39.774 114.91 41.8554L104.553 50.7569V80.8568L90.7712 84.665V21.6861C86.6572 19.6744 83.8806 15.9301 83.8806 11.6275C83.8806 4.99943 90.4543 -0.337984 98.4132 0.0167124C105.531 0.330662 111.292 5.35987 111.444 11.3718C111.554 15.7789 108.749 19.6336 104.553 21.6861V31.448L125.315 13.5986V13.6102C130.366 8.82521 137.711 5.81343 145.898 5.81343ZM71.8928 42.3145C73.8952 39.9219 77.9625 39.6243 80.3948 41.7076L83.8801 44.7013V25.3214L69.9321 13.3526V13.3584C64.8531 8.5617 57.4667 5.53884 49.2355 5.53884H0.67041C0.67041 5.53884 3.59447 52.2233 49.2355 52.2233C58.6031 52.2233 66.8764 48.3076 71.8928 42.3145ZM76.1629 88.9679L76.0865 88.9913C70.2624 90.6529 65.1331 92.9501 60.8292 95.7428C51.715 89.6676 50.2226 82.6711 50.2226 78.753C50.2226 73.2083 51.7082 67.9319 58.6704 62.8827C65.952 57.4547 75.4269 57.134 78.8911 61.9033C82.0771 66.2877 78.9603 73.2958 71.9354 77.5637C69.4922 79.0445 66.9027 79.9892 64.4249 80.4205C65.2856 82.7586 67.9025 85.1373 71.8939 87.1431C73.3027 87.8486 74.4481 88.3674 76.1629 88.9679ZM116.264 61.8975C119.691 57.131 129.074 57.4628 136.272 62.8752C143.168 67.9152 144.631 73.1822 144.652 78.7227C144.652 83.1924 142.729 91.6719 129.823 98.2076C126.876 99.6975 124.658 100.6 120.248 101.944C129.685 105.983 135.146 112.361 135.146 119.642C135.146 130.182 124.802 136.205 113.112 139.785C118.895 143.294 121.945 147.874 121.945 152.594C121.945 155.661 121.491 158.88 115.653 162.628L115.646 162.622C115.303 162.855 114.877 163 114.403 163C113.304 163 112.411 162.243 112.411 161.312C112.411 161.004 112.514 160.719 112.686 160.468L112.679 160.463C117.095 154.183 112.129 150.22 104.238 147.415V157.174C104.238 160.387 101.16 162.994 97.3689 162.994C93.5777 162.994 90.5005 160.387 90.5005 157.174V147.409C82.2859 150.33 78.0618 153.706 82.0455 160.463H82.0387C82.2103 160.713 82.3133 160.998 82.3133 161.306C82.3133 162.238 81.4204 162.994 80.3213 162.994C79.8477 162.994 79.4148 162.849 79.0714 162.616L79.0646 162.622C73.0342 159.037 72.6356 155.428 72.6356 152.518C72.6356 147.449 75.7473 143.137 81.5234 139.744H81.5166C84.2882 138.124 85.9833 137.487 92.9682 134.863C94.2401 134.385 95.6874 133.842 97.3485 133.214C99.8534 132.267 102.119 131.426 104.163 130.667C117.385 125.759 121.388 124.273 121.388 119.63C121.388 117.419 117.666 114.113 110.564 112.065C108.906 111.595 107.32 111.151 105.799 110.725L105.795 110.724L105.794 110.724C105.262 110.575 104.739 110.428 104.224 110.284V117.704L90.4869 122.895V110.278C88.4881 110.837 86.3727 111.43 84.1267 112.065C77.0247 114.107 73.3017 117.419 73.3017 119.63C73.3017 122.651 74.9778 124.414 80.4108 126.742C75.6921 128.704 71.6534 131.154 68.4182 133.977C63.2737 130.508 59.572 125.771 59.572 119.63C59.572 111.011 67.2235 103.655 80.0809 99.9535C89.2851 97.3637 96.2908 95.4199 101.731 93.9183C117.597 89.5244 119.458 88.9773 123.188 87.0917C127.137 85.0896 129.727 82.7151 130.578 80.3813C128.126 79.9507 125.564 79.0078 123.146 77.5296C116.196 73.2695 113.118 66.274 116.264 61.8975Z" fill="#A3C9EA"/>
</svg>
