<svg width="15" height="22" viewBox="0 0 15 22" fill="none" xmlns="http://www.w3.org/2000/svg">
<path fill-rule="evenodd" clip-rule="evenodd" d="M13.8259 11.7848L3.88836 21.7223C3.71872 21.8919 3.51782 21.9767 3.28568 21.9767C3.05354 21.9767 2.85264 21.8919 2.683 21.7223L0.459786 19.4991C0.290144 19.3294 0.205322 19.1285 0.205322 18.8964C0.205322 18.6642 0.290144 18.4633 0.459786 18.2937L7.57139 11.1821L0.459786 4.07049C0.290144 3.90085 0.205322 3.69995 0.205322 3.46781C0.205322 3.23567 0.290144 3.03477 0.459786 2.86513L2.683 0.641915C2.85264 0.472273 3.05354 0.387451 3.28568 0.387451C3.51782 0.387451 3.71872 0.472273 3.88836 0.641915L13.8259 10.5794C13.9955 10.7491 14.0803 10.95 14.0803 11.1821C14.0803 11.4143 13.9955 11.6151 13.8259 11.7848V11.7848Z" fill="#7030A0"/>
</svg>
