<svg width="22" height="22" viewBox="0 0 22 22" fill="none" xmlns="http://www.w3.org/2000/svg">
<path fill-rule="evenodd" clip-rule="evenodd" d="M19.0701 8.39217L20.7935 8.61121C21.481 8.69362 22.0008 9.2794 22 9.97328V12.0267C22 12.7206 21.4802 13.3064 20.7899 13.3888L19.0701 13.6078C18.929 14.0452 18.7539 14.4669 18.5486 14.8674L19.6128 16.237C20.0437 16.7924 19.9933 17.5744 19.4965 18.0564L18.0526 19.5003C17.5759 19.9926 16.793 20.0429 16.2384 19.612L14.8679 18.5479C14.4674 18.7522 14.0458 18.9274 13.6084 19.0694L13.3893 20.7927C13.3069 21.4802 12.7211 22 12.0272 22H9.97366C9.27976 22 8.69395 21.4802 8.61153 20.7881L8.39248 19.0686C7.95506 18.9274 7.53341 18.7522 7.13292 18.5469L5.76323 19.6112C5.20781 20.0411 4.42578 19.9915 3.94371 19.4957L2.49984 18.0519C2.00752 17.5752 1.95717 16.7924 2.38805 16.2378L3.45223 14.8674C3.24796 14.4669 3.07272 14.0452 2.93071 13.6078L1.20737 13.3888C0.519841 13.3064 0 12.7206 0 12.0267V9.97328C0 9.2794 0.519841 8.69362 1.21005 8.61121L2.93071 8.39217C3.07272 7.95476 3.24695 7.53313 3.45223 7.13264L2.38805 5.76302C1.95717 5.20761 2.00752 4.42477 2.50437 3.94255L3.94824 2.49974C4.42578 2.00745 5.20865 1.95793 5.7624 2.38795L7.13191 3.4521C7.53257 3.24683 7.95422 3.0726 8.39248 2.9306L8.61153 1.20732C8.69395 0.519821 9.27976 0 9.97366 0H12.0272C12.7211 0 13.3069 0.519821 13.3893 1.21001L13.6084 2.9306C14.0466 3.0726 14.4683 3.24783 14.8689 3.4521L16.2376 2.38795C16.793 1.95793 17.5759 2.00745 18.0571 2.50427L19.501 3.94809C19.9933 4.42477 20.0437 5.20761 19.6128 5.76218L18.5486 7.13264C18.7529 7.53313 18.9281 7.95476 19.0701 8.39217ZM6.41685 11C6.41685 13.5273 8.47305 15.5834 11.0004 15.5834C13.5278 15.5834 15.584 13.5273 15.584 11C15.584 8.47273 13.5278 6.41661 11.0004 6.41661C8.47305 6.41661 6.41685 8.47273 6.41685 11Z" fill="white"/>
</svg>
