<svg width="22" height="23" viewBox="0 0 22 23" fill="none" xmlns="http://www.w3.org/2000/svg">
<path fill-rule="evenodd" clip-rule="evenodd" d="M21.1144 8.78361L11.4706 0.184788C11.1964 -0.0615961 10.785 -0.0615961 10.5108 0.184788L0.866998 8.78361C0.135714 9.44885 0.569914 10.73 1.52972 10.73H2.6038V21.0782C2.6038 22.1377 3.38079 23 4.3863 23H8.17984C8.61404 23 8.93398 22.6551 8.93398 22.1869V17.1853C8.93398 16.7172 9.25391 16.3723 9.68811 16.3723H12.339C12.7732 16.3723 13.0932 16.7172 13.0932 17.1853V22.1623C13.0932 22.6304 13.4131 22.9754 13.8473 22.9754H17.6637C18.6463 22.9754 19.4462 22.1377 19.4462 21.0536V10.7054H20.5203C21.4344 10.73 21.8686 9.44885 21.1144 8.78361Z" fill="white"/>
</svg>
