<svg width="140" height="76" viewBox="0 0 140 76" fill="none" xmlns="http://www.w3.org/2000/svg">
<path fill-rule="evenodd" clip-rule="evenodd" d="M93.3874 77C77.967 68.1385 68.0157 54.1918 68.0157 38.4992C68.0157 22.805 77.967 8.86146 93.3874 0C108.808 8.85987 118.759 22.805 118.759 38.4992C118.759 54.1934 108.808 68.1385 93.3874 77ZM158.869 21.9838C146.329 19.9729 133.629 21.0378 122.55 25.2425C123.897 29.3894 124.607 33.6922 124.607 38.088C124.607 53.4294 116.094 67.6626 101.058 77.9046C117.125 78.7061 132.793 74.4628 144.288 64.9226C157.801 53.7041 162.527 37.6865 158.869 21.9838ZM162.927 49C160.03 56.3099 155.149 62.9554 148.374 68.4753C137.027 77.7252 121.449 82.8505 104.51 82.8505H104.508C103.756 82.8505 102.997 82.83 102.238 82.8032C114.608 89.0855 129.179 91.6095 143.653 88.9529C162.313 85.5308 176.635 74.2904 183.664 59.6532C177.529 54.9477 170.477 51.3156 162.927 49ZM36.0409 68.4722C47.3903 77.7236 62.969 82.849 79.9089 82.849C80.6603 82.849 81.4174 82.83 82.1765 82.8032C69.8104 89.0855 55.2387 91.6095 40.7638 88.9529C22.1024 85.5308 7.78049 74.2889 0.751221 59.6532C6.88392 54.9477 13.9345 51.3156 21.4847 49C24.3816 56.3084 29.2672 62.9506 36.0409 68.4722ZM59.8716 38.0884C59.8716 33.7085 60.5704 29.4219 61.9062 25.2894C50.8217 21.046 38.1041 19.9651 25.5428 21.984C21.8942 37.6868 26.6103 53.7045 40.0943 64.9215C51.5939 74.489 67.2825 78.7323 83.3572 77.8971C68.3635 67.6582 59.8716 53.4282 59.8716 38.0884Z" fill="#A3C9EA"/>
</svg>
