<svg width="150" height="163" viewBox="0 0 150 163" fill="none" xmlns="http://www.w3.org/2000/svg">
<path fill-rule="evenodd" clip-rule="evenodd" d="M26.1767 0L67.6246 51.203L78.5368 65.4197L79.19 66.2597C78.0083 66.1828 76.793 66.1545 75.5856 66.1545C73.0975 66.1545 70.6391 66.2864 68.2461 66.5753L15.2309 0H0.429199L55.404 69.252C33.6686 76.1483 18.1841 93.8532 18.1841 114.581C18.1841 139.628 40.8517 160.3 69.8335 162.74C71.7298 162.923 73.626 163 75.5875 163C107.24 163 132.983 141.282 132.983 114.581C132.983 94.092 117.843 76.5674 96.5074 69.4874L94.9873 67.5204L149.119 0H134.099L87.5567 57.8388L81.9868 50.6536L123.156 0H108.485L74.9918 41.5248L41.0101 0H26.1767ZM75.958 76.6475C100.583 76.8328 120.547 93.7764 120.547 114.58C120.547 135.483 100.365 152.509 75.5898 152.509C74.034 152.509 72.5099 152.43 71.0175 152.323C48.3498 150.356 30.6246 134.171 30.6246 114.58C30.6246 97.4766 44.1199 82.9977 62.5893 78.2739C65.6672 77.4874 68.8995 76.9631 72.2288 76.7527C73.3472 76.6758 74.4655 76.6475 75.5878 76.6475H75.958Z" fill="#7B92F1"/>
<path d="M75.954 83C96.8169 83 113.716 97.3136 113.716 115.001C113.716 132.655 96.8169 147 75.954 147C55.1148 147 38.1915 132.656 38.1915 115.001C38.1915 97.3136 55.1148 83 75.954 83Z" fill="#7B92F1"/>
</svg>
