<svg width="18" height="15" viewBox="0 0 18 15" fill="none" xmlns="http://www.w3.org/2000/svg">
<path fill-rule="evenodd" clip-rule="evenodd" d="M17.3142 4.81421V7.38563C17.3142 7.55974 17.2506 7.71041 17.1234 7.83764C16.9962 7.96488 16.8455 8.02849 16.6714 8.02849H16.0285C15.8544 8.02849 15.7037 7.96488 15.5765 7.83764C15.4493 7.71041 15.3857 7.55974 15.3857 7.38563V4.81421C15.3857 4.10439 15.1346 3.49836 14.6323 2.99613C14.1301 2.4939 13.5241 2.24278 12.8142 2.24278C12.1044 2.24278 11.4984 2.4939 10.9962 2.99613C10.4939 3.49836 10.2428 4.10439 10.2428 4.81421V6.74278H11.2071C11.475 6.74278 11.7026 6.83653 11.8901 7.02403C12.0776 7.21153 12.1714 7.43921 12.1714 7.70707V13.4928C12.1714 13.7606 12.0776 13.9883 11.8901 14.1758C11.7026 14.3633 11.475 14.4571 11.2071 14.4571H1.56426C1.2964 14.4571 1.06872 14.3633 0.881226 14.1758C0.693726 13.9883 0.599976 13.7606 0.599976 13.4928V7.70707C0.599976 7.43921 0.693726 7.21153 0.881226 7.02403C1.06873 6.83653 1.2964 6.74278 1.56426 6.74278H8.31426V4.81421C8.31426 3.57537 8.75455 2.51566 9.63513 1.63508C10.5157 0.754499 11.5754 0.314209 12.8143 0.314209C14.0531 0.314209 15.1128 0.754499 15.9934 1.63508C16.874 2.51566 17.3143 3.57537 17.3143 4.81421H17.3142Z" fill="#15181A"/>
</svg>
