<svg width="24" height="24" viewBox="0 0 24 24" fill="none" xmlns="http://www.w3.org/2000/svg">
<path fill-rule="evenodd" clip-rule="evenodd" d="M18.9428 16.4839C18.9428 16.6647 18.9094 16.9007 18.8424 17.192C18.7754 17.4833 18.7051 17.7127 18.6315 17.8801C18.4908 18.2149 18.0824 18.5698 17.406 18.9448C16.7766 19.2863 16.1538 19.4571 15.5377 19.4571C15.3569 19.4571 15.1811 19.4453 15.0104 19.4219C14.8396 19.3985 14.6471 19.3566 14.4328 19.2964C14.2185 19.2361 14.0595 19.1875 13.9557 19.1507C13.8519 19.1139 13.6661 19.0452 13.3982 18.9448C13.1303 18.8443 12.9663 18.7841 12.906 18.764C12.2498 18.5296 11.6638 18.2517 11.1482 17.9303C10.2911 17.4013 9.40545 16.6797 8.49139 15.7657C7.57733 14.8516 6.85579 13.966 6.32677 13.1089C6.00535 12.5932 5.72744 12.0073 5.49307 11.351C5.47298 11.2908 5.41271 11.1267 5.31226 10.8589C5.21182 10.591 5.14318 10.4052 5.10635 10.3014C5.06952 10.1976 5.02097 10.0385 4.9607 9.82425C4.90043 9.60997 4.85858 9.41745 4.83514 9.24669C4.81171 9.07593 4.79999 8.90015 4.79999 8.71934C4.79999 8.10327 4.97075 7.4805 5.31226 6.85104C5.68726 6.1747 6.04217 5.76622 6.37699 5.62559C6.54441 5.55193 6.77376 5.48162 7.06505 5.41466C7.35635 5.34769 7.5924 5.31421 7.7732 5.31421C7.86695 5.31421 7.93726 5.32425 7.98414 5.34434C8.10467 5.38452 8.28213 5.63899 8.5165 6.10773C8.59017 6.23497 8.69061 6.41577 8.81784 6.65015C8.94508 6.88452 9.06226 7.09713 9.16941 7.28798C9.27655 7.47883 9.38034 7.65796 9.48079 7.82537C9.50088 7.85216 9.55947 7.93586 9.65657 8.07649C9.75367 8.21711 9.82566 8.33597 9.87253 8.43307C9.91941 8.53017 9.94284 8.62559 9.94284 8.71934C9.94284 8.85327 9.84742 9.02068 9.65657 9.22158C9.46572 9.42247 9.25813 9.60662 9.0338 9.77403C8.80947 9.94144 8.60188 10.1189 8.41103 10.3064C8.22018 10.4939 8.12476 10.6479 8.12476 10.7685C8.12476 10.8287 8.1415 10.9041 8.17498 10.9945C8.20846 11.0849 8.23692 11.1535 8.26036 11.2004C8.2838 11.2472 8.33067 11.3276 8.40099 11.4414C8.4713 11.5553 8.5098 11.6189 8.5165 11.6323C9.02543 12.5497 9.60802 13.3365 10.2643 13.9928C10.9205 14.649 11.7073 15.2316 12.6248 15.7406C12.6382 15.7472 12.7018 15.7858 12.8156 15.8561C12.9294 15.9264 13.0098 15.9733 13.0567 15.9967C13.1036 16.0201 13.1722 16.0486 13.2626 16.0821C13.353 16.1156 13.4283 16.1323 13.4886 16.1323C13.6091 16.1323 13.7632 16.0369 13.9507 15.846C14.1382 15.6552 14.3156 15.4476 14.483 15.2233C14.6504 14.9989 14.8346 14.7913 15.0355 14.6005C15.2364 14.4096 15.4038 14.3142 15.5377 14.3142C15.6315 14.3142 15.7269 14.3376 15.824 14.3845C15.9211 14.4314 16.0399 14.5034 16.1806 14.6005C16.3212 14.6976 16.4049 14.7562 16.4317 14.7763C16.5991 14.8767 16.7782 14.9805 16.9691 15.0876C17.1599 15.1948 17.3725 15.312 17.6069 15.4392C17.8413 15.5664 18.0221 15.6669 18.1493 15.7405C18.6181 15.9749 18.8725 16.1524 18.9127 16.2729C18.9328 16.3198 18.9428 16.3901 18.9428 16.4839L18.9428 16.4839Z" fill="#009DDE"/>
</svg>
