<svg width="24" height="24" viewBox="0 0 24 24" fill="none" xmlns="http://www.w3.org/2000/svg">
<path fill-rule="evenodd" clip-rule="evenodd" d="M13.8455 14.1984C14.7295 13.3145 15.1714 12.2531 15.1714 11.0143C15.1714 9.77546 14.7311 8.71575 13.8506 7.83517C12.97 6.95459 11.9103 6.5143 10.6714 6.5143C9.4326 6.5143 8.37289 6.95459 7.49231 7.83517C6.61173 8.71575 6.17144 9.77546 6.17144 11.0143C6.17144 12.2531 6.61173 13.3128 7.49231 14.1934C8.37289 15.074 9.4326 15.5143 10.6714 15.5143C11.9103 15.5143 12.9683 15.0757 13.8455 14.1984ZM20.3143 19.3714C20.3143 19.7197 20.187 20.021 19.9326 20.2755C19.6781 20.5299 19.3768 20.6572 19.0285 20.6572C18.6669 20.6572 18.3656 20.5299 18.1245 20.2755L14.6792 16.8402C13.4806 17.6705 12.1446 18.0857 10.6714 18.0857C9.71381 18.0857 8.79808 17.8999 7.92419 17.5282C7.05031 17.1566 6.29696 16.6544 5.66415 16.0215C5.03134 15.3887 4.5291 14.6354 4.15745 13.7615C3.7858 12.8876 3.59998 11.9719 3.59998 11.0143C3.59998 10.0567 3.7858 9.14097 4.15745 8.26709C4.5291 7.3932 5.03134 6.63986 5.66415 6.00704C6.29696 5.37423 7.05031 4.872 7.92419 4.50035C8.79808 4.1287 9.71381 3.94287 10.6714 3.94287C11.629 3.94287 12.5447 4.1287 13.4186 4.50035C14.2925 4.872 15.0458 5.37423 15.6787 6.00704C16.3115 6.63986 16.8137 7.3932 17.1853 8.26709C17.557 9.14097 17.7428 10.0567 17.7428 11.0143C17.7428 12.4875 17.3276 13.8235 16.4973 15.0221L19.9426 18.4674C20.1904 18.7152 20.3143 19.0165 20.3143 19.3714L20.3143 19.3714Z" fill="#7030A0"/>
</svg>
